<svg data-v-423bf9ae="" xmlns="http://www.w3.org/2000/svg" viewBox="0 0 502 112" class="iconLeft"><!----><!----><!----><g data-v-423bf9ae="" id="2b9bb708-6a4e-44b3-9ecc-d89627dbd17d" fill="white" transform="matrix(5.988024248455585,0,0,5.988024248455585,127.30532483882999,1.0478721792511863)"><path d="M4.17 14.11L4.17 14.11Q3.11 14.11 2.30 13.76L2.30 13.76L2.30 13.76Q1.50 13.41 1.06 12.78L1.06 12.78L1.06 12.78Q0.63 12.14 0.63 11.30L0.63 11.30L0.63 11.00L0.63 11.00Q0.63 10.78 0.85 10.78L0.85 10.78L2.00 10.78L2.00 10.78Q2.23 10.78 2.23 10.99L2.23 10.99L2.23 11.21L2.23 11.21Q2.23 11.86 2.79 12.29L2.79 12.29L2.79 12.29Q3.36 12.71 4.30 12.71L4.30 12.71L4.30 12.71Q5.15 12.71 5.59 12.35L5.59 12.35L5.59 12.35Q6.02 11.98 6.02 11.41L6.02 11.41L6.02 11.41Q6.02 11.02 5.78 10.75L5.78 10.75L5.78 10.75Q5.54 10.47 5.10 10.25L5.10 10.25L5.10 10.25Q4.66 10.02 3.78 9.69L3.78 9.69L3.78 9.69Q2.79 9.32 2.17 9.00L2.17 9.00L2.17 9.00Q1.55 8.68 1.14 8.13L1.14 8.13L1.14 8.13Q0.73 7.57 0.73 6.75L0.73 6.75L0.73 6.75Q0.73 5.52 1.62 4.80L1.62 4.80L1.62 4.80Q2.52 4.09 4.02 4.09L4.02 4.09L4.02 4.09Q5.07 4.09 5.87 4.45L5.87 4.45L5.87 4.45Q6.68 4.82 7.13 5.47L7.13 5.47L7.13 5.47Q7.57 6.12 7.57 6.97L7.57 6.97L7.57 7.15L7.57 7.15Q7.57 7.38 7.35 7.38L7.35 7.38L6.20 7.38L6.20 7.38Q6.10 7.38 6.04 7.33L6.04 7.33L6.04 7.33Q5.98 7.28 5.98 7.21L5.98 7.21L5.98 7.06L5.98 7.06Q5.98 6.40 5.44 5.94L5.44 5.94L5.44 5.94Q4.90 5.49 3.95 5.49L3.95 5.49L3.95 5.49Q3.18 5.49 2.75 5.81L2.75 5.81L2.75 5.81Q2.32 6.13 2.32 6.72L2.32 6.72L2.32 6.72Q2.32 7.14 2.55 7.41L2.55 7.41L2.55 7.41Q2.77 7.67 3.22 7.89L3.22 7.89L3.22 7.89Q3.67 8.11 4.61 8.44L4.61 8.44L4.61 8.44Q5.60 8.82 6.20 9.13L6.20 9.13L6.20 9.13Q6.79 9.44 7.22 9.99L7.22 9.99L7.22 9.99Q7.64 10.54 7.64 11.37L7.64 11.37L7.64 11.37Q7.64 12.18 7.22 12.80L7.22 12.80L7.22 12.80Q6.80 13.43 6.02 13.77L6.02 13.77L6.02 13.77Q5.24 14.11 4.17 14.11L4.17 14.11ZM16.79 6.73L16.79 6.73Q17.86 6.73 18.47 7.38L18.47 7.38L18.47 7.38Q19.08 8.04 19.08 9.20L19.08 9.20L19.08 13.78L19.08 13.78Q19.08 14 18.86 14L18.86 14L17.70 14L17.70 14Q17.47 14 17.47 13.78L17.47 13.78L17.47 9.53L17.47 9.53Q17.47 8.89 17.13 8.51L17.13 8.51L17.13 8.51Q16.79 8.13 16.21 8.13L16.21 8.13L16.21 8.13Q15.64 8.13 15.27 8.51L15.27 8.51L15.27 8.51Q14.91 8.89 14.91 9.52L14.91 9.52L14.91 13.78L14.91 13.78Q14.91 14 14.69 14L14.69 14L13.52 14L13.52 14Q13.30 14 13.30 13.78L13.30 13.78L13.30 9.53L13.30 9.53Q13.30 8.89 12.95 8.51L12.95 8.51L12.95 8.51Q12.60 8.13 12.03 8.13L12.03 8.13L12.03 8.13Q11.49 8.13 11.15 8.44L11.15 8.44L11.15 8.44Q10.81 8.75 10.75 9.28L10.75 9.28L10.75 13.78L10.75 13.78Q10.75 14 10.53 14L10.53 14L9.35 14L9.35 14Q9.13 14 9.13 13.78L9.13 13.78L9.13 7.07L9.13 7.07Q9.13 6.85 9.35 6.85L9.35 6.85L10.53 6.85L10.53 6.85Q10.75 6.85 10.75 7.07L10.75 7.07L10.75 7.45L10.75 7.45Q10.75 7.50 10.79 7.52L10.79 7.52L10.79 7.52Q10.82 7.53 10.85 7.48L10.85 7.48L10.85 7.48Q11.45 6.73 12.61 6.73L12.61 6.73L12.61 6.73Q13.30 6.73 13.81 7.01L13.81 7.01L13.81 7.01Q14.32 7.28 14.60 7.81L14.60 7.81L14.60 7.81Q14.63 7.85 14.66 7.85L14.66 7.85L14.66 7.85Q14.70 7.85 14.71 7.80L14.71 7.80L14.71 7.80Q15.04 7.27 15.58 7L15.58 7L15.58 7Q16.13 6.73 16.79 6.73L16.79 6.73ZM23.46 6.73L23.46 6.73Q24.35 6.73 25.02 7.04L25.02 7.04L25.02 7.04Q25.70 7.35 26.07 7.89L26.07 7.89L26.07 7.89Q26.43 8.43 26.43 9.11L26.43 9.11L26.43 13.78L26.43 13.78Q26.43 14 26.21 14L26.21 14L25.03 14L25.03 14Q24.81 14 24.81 13.78L24.81 13.78L24.81 13.43L24.81 13.43Q24.81 13.37 24.78 13.36L24.78 13.36L24.78 13.36Q24.75 13.36 24.71 13.38L24.71 13.38L24.71 13.38Q23.95 14.11 22.69 14.11L22.69 14.11L22.69 14.11Q21.66 14.11 20.99 13.58L20.99 13.58L20.99 13.58Q20.33 13.05 20.33 12.00L20.33 12.00L20.33 12.00Q20.33 10.91 21.09 10.30L21.09 10.30L21.09 10.30Q21.85 9.69 23.24 9.69L23.24 9.69L24.72 9.69L24.72 9.69Q24.81 9.69 24.81 9.60L24.81 9.60L24.81 9.28L24.81 9.28Q24.81 8.74 24.48 8.43L24.48 8.43L24.48 8.43Q24.15 8.13 23.51 8.13L23.51 8.13L23.51 8.13Q23.02 8.13 22.69 8.31L22.69 8.31L22.69 8.31Q22.37 8.48 22.26 8.79L22.26 8.79L22.26 8.79Q22.20 8.99 22.01 8.97L22.01 8.97L20.75 8.82L20.75 8.82Q20.64 8.81 20.58 8.76L20.58 8.76L20.58 8.76Q20.52 8.71 20.54 8.64L20.54 8.64L20.54 8.64Q20.66 7.80 21.47 7.27L21.47 7.27L21.47 7.27Q22.27 6.73 23.46 6.73L23.46 6.73ZM23.14 12.82L23.14 12.82Q23.83 12.82 24.32 12.46L24.32 12.46L24.32 12.46Q24.81 12.10 24.81 11.54L24.81 11.54L24.81 10.89L24.81 10.89Q24.81 10.81 24.72 10.81L24.72 10.81L23.56 10.81L23.56 10.81Q22.82 10.81 22.39 11.09L22.39 11.09L22.39 11.09Q21.95 11.37 21.95 11.89L21.95 11.89L21.95 11.89Q21.95 12.33 22.29 12.58L22.29 12.58L22.29 12.58Q22.62 12.82 23.14 12.82L23.14 12.82ZM31.37 6.76L31.37 6.76Q31.78 6.76 32.12 6.92L32.12 6.92L32.12 6.92Q32.28 7 32.24 7.20L32.24 7.20L32.02 8.36L32.02 8.36Q32.00 8.47 31.94 8.50L31.94 8.50L31.94 8.50Q31.88 8.53 31.75 8.50L31.75 8.50L31.75 8.50Q31.58 8.44 31.30 8.44L31.30 8.44L31.30 8.44Q31.14 8.44 31.04 8.46L31.04 8.46L31.04 8.46Q30.45 8.48 30.06 8.87L30.06 8.87L30.06 8.87Q29.67 9.25 29.67 9.87L29.67 9.87L29.67 13.78L29.67 13.78Q29.67 14 29.44 14L29.44 14L28.27 14L28.27 14Q28.04 14 28.04 13.78L28.04 13.78L28.04 7.07L28.04 7.07Q28.04 6.85 28.27 6.85L28.27 6.85L29.44 6.85L29.44 6.85Q29.67 6.85 29.67 7.07L29.67 7.07L29.67 7.62L29.67 7.62Q29.67 7.67 29.69 7.69L29.69 7.69L29.69 7.69Q29.72 7.70 29.75 7.64L29.75 7.64L29.75 7.64Q30.34 6.76 31.37 6.76L31.37 6.76ZM37.10 7.94L37.10 7.94Q37.10 8.16 36.88 8.16L36.88 8.16L35.52 8.16L35.52 8.16Q35.43 8.16 35.43 8.25L35.43 8.25L35.43 11.55L35.43 11.55Q35.43 12.10 35.66 12.33L35.66 12.33L35.66 12.33Q35.90 12.57 36.40 12.57L36.40 12.57L36.76 12.57L36.76 12.57Q36.99 12.57 36.99 12.80L36.99 12.80L36.99 13.73L36.99 13.73Q36.99 13.96 36.76 13.97L36.76 13.97L36.09 13.99L36.09 13.99Q34.99 13.99 34.44 13.60L34.44 13.60L34.44 13.60Q33.89 13.22 33.88 12.17L33.88 12.17L33.88 8.25L33.88 8.25Q33.88 8.16 33.80 8.16L33.80 8.16L33.07 8.16L33.07 8.16Q32.84 8.16 32.84 7.94L32.84 7.94L32.84 7.07L32.84 7.07Q32.84 6.85 33.07 6.85L33.07 6.85L33.80 6.85L33.80 6.85Q33.88 6.85 33.88 6.76L33.88 6.76L33.88 5.19L33.88 5.19Q33.88 4.97 34.10 4.97L34.10 4.97L35.21 4.97L35.21 4.97Q35.43 4.97 35.43 5.19L35.43 5.19L35.43 6.76L35.43 6.76Q35.43 6.85 35.52 6.85L35.52 6.85L36.88 6.85L36.88 6.85Q37.10 6.85 37.10 7.07L37.10 7.07L37.10 7.94ZM45.33 5.38L45.33 5.38Q45.33 5.60 45.11 5.60L45.11 5.60L40.40 5.60L40.40 5.60Q40.32 5.60 40.32 5.68L40.32 5.68L40.32 8.27L40.32 8.27Q40.32 8.36 40.40 8.36L40.40 8.36L43.54 8.36L43.54 8.36Q43.76 8.36 43.76 8.58L43.76 8.58L43.76 9.53L43.76 9.53Q43.76 9.76 43.54 9.76L43.54 9.76L40.40 9.76L40.40 9.76Q40.32 9.76 40.32 9.84L40.32 9.84L40.32 12.52L40.32 12.52Q40.32 12.60 40.40 12.60L40.40 12.60L45.11 12.60L45.11 12.60Q45.33 12.60 45.33 12.82L45.33 12.82L45.33 13.78L45.33 13.78Q45.33 14 45.11 14L45.11 14L38.92 14L38.92 14Q38.70 14 38.70 13.78L38.70 13.78L38.70 4.42L38.70 4.42Q38.70 4.20 38.92 4.20L38.92 4.20L45.11 4.20L45.11 4.20Q45.33 4.20 45.33 4.42L45.33 4.42L45.33 5.38ZM52.53 14L52.53 14Q52.33 14 52.26 13.83L52.26 13.83L50.43 9.83L50.43 9.83Q50.41 9.77 50.33 9.77L50.33 9.77L48.69 9.77L48.69 9.77Q48.61 9.77 48.61 9.86L48.61 9.86L48.61 13.78L48.61 13.78Q48.61 14 48.38 14L48.38 14L47.21 14L47.21 14Q46.98 14 46.98 13.78L46.98 13.78L46.98 4.41L46.98 4.41Q46.98 4.19 47.21 4.19L47.21 4.19L51.00 4.19L51.00 4.19Q51.86 4.19 52.51 4.54L52.51 4.54L52.51 4.54Q53.17 4.90 53.54 5.55L53.54 5.55L53.54 5.55Q53.90 6.20 53.90 7.04L53.90 7.04L53.90 7.04Q53.90 8.01 53.40 8.69L53.40 8.69L53.40 8.69Q52.91 9.37 52.04 9.62L52.04 9.62L52.04 9.62Q52.00 9.63 51.98 9.67L51.98 9.67L51.98 9.67Q51.97 9.70 52.00 9.73L52.00 9.73L53.93 13.73L53.96 13.85L53.96 13.85Q53.96 14 53.76 14L53.76 14L52.53 14ZM48.69 5.59L48.69 5.59Q48.61 5.59 48.61 5.67L48.61 5.67L48.61 8.43L48.61 8.43Q48.61 8.51 48.69 8.51L48.69 8.51L50.78 8.51L50.78 8.51Q51.45 8.51 51.86 8.11L51.86 8.11L51.86 8.11Q52.28 7.71 52.28 7.07L52.28 7.07L52.28 7.07Q52.28 6.41 51.86 6.00L51.86 6.00L51.86 6.00Q51.45 5.59 50.78 5.59L50.78 5.59L48.69 5.59ZM59.50 4.19L59.50 4.19Q60.38 4.19 61.05 4.55L61.05 4.55L61.05 4.55Q61.73 4.91 62.10 5.58L62.10 5.58L62.10 5.58Q62.47 6.24 62.47 7.11L62.47 7.11L62.47 7.11Q62.47 7.97 62.09 8.62L62.09 8.62L62.09 8.62Q61.71 9.28 61.02 9.64L61.02 9.64L61.02 9.64Q60.33 10.00 59.42 10.00L59.42 10.00L57.19 10.00L57.19 10.00Q57.11 10.00 57.11 10.08L57.11 10.08L57.11 13.78L57.11 13.78Q57.11 14 56.88 14L56.88 14L55.71 14L55.71 14Q55.48 14 55.48 13.78L55.48 13.78L55.48 4.41L55.48 4.41Q55.48 4.19 55.71 4.19L55.71 4.19L59.50 4.19ZM59.26 8.68L59.26 8.68Q59.98 8.68 60.41 8.26L60.41 8.26L60.41 8.26Q60.84 7.84 60.84 7.15L60.84 7.15L60.84 7.15Q60.84 6.45 60.41 6.02L60.41 6.02L60.41 6.02Q59.98 5.59 59.26 5.59L59.26 5.59L57.19 5.59L57.19 5.59Q57.11 5.59 57.11 5.67L57.11 5.67L57.11 8.60L57.11 8.60Q57.11 8.68 57.19 8.68L57.19 8.68L59.26 8.68Z"></path></g><!----><g data-v-423bf9ae="" id="d4c137c7-8323-43f7-bf02-db9769837570" transform="matrix(1.1109444512261284,0,0,1.1109444512261284,0.46110918304443516,0.46110918304443516)" stroke="none" fill="white"><path d="M49.993 0C22.386 0 0 22.386 0 49.992c0 27.613 22.386 49.993 49.993 49.993 27.612 0 49.992-22.38 49.992-49.993C99.985 22.386 77.605 0 49.993 0zM35.047 74.5a2.036 2.036 0 0 1-2.024 2.032H22.864a2.043 2.043 0 0 1-2.031-2.032V53.084c0-1.112.919-2.03 2.031-2.03h10.158c1.113 0 2.024.918 2.024 2.03V74.5zm20.602 0a2.041 2.041 0 0 1-2.037 2.032H43.464a2.04 2.04 0 0 1-2.031-2.032V37.949c0-1.112.915-2.023 2.031-2.023h10.148c1.123 0 2.037.911 2.037 2.023V74.5zm20.593 0a2.038 2.038 0 0 1-2.03 2.032H64.063a2.042 2.042 0 0 1-2.031-2.032V22.21c0-1.113.918-2.024 2.031-2.024h10.148c1.119 0 2.03.911 2.03 2.024V74.5z"></path></g><!----></svg>